# xmcd
# Track frame offsets:
# 150
# 16217
# 34811
# 54171
# 72161
# 91511
# 107470
# 120894
# 139866
# 159069
# 176950
# 197283
#
# Disc length: 2928 seconds
# Revision: 0
# Processed by: cddbd v1.5.1PL0 Copyright (c) Steve Scherf et al.
# Submitted via: VisiTrax 2.9.10.228 - For more info visit www.synapsa.com
#
DISCID=830b6e0c
DTITLE=Marcus Malone - One More Time
DYEAR=2003
DGENRE=
TTITLE0=One More Time
TTITLE1=Dirty Shame
TTITLE2=Redline Blues Effect
TTITLE3=Testify
TTITLE4=Drowning Man
TTITLE5=Pride and Joy
TTITLE6=Tell Me Why
TTITLE7=Ball and Chain
TTITLE8=Heart For Rent
TTITLE9=Yesterday Man
TTITLE10=Redline Cause
TTITLE11=One More Time (Extended Mix)
EXTD=All tracks written by Marcus Malone exept track 5 cowritten by Malone/
EXTD=Barnes
EXTT0=
EXTT1=
EXTT2=
EXTT3=
EXTT4=
EXTT5=
EXTT6=
EXTT7=
EXTT8=
EXTT9=
EXTT10=
EXTT11=
PLAYORDER=
